<?xml version="1.0" encoding="UTF-8"?>
<svg width="16" height="16" version="1.1" viewBox="0 0 4.2333 4.2333" xmlns="http://www.w3.org/2000/svg"><path d="m3.7782 1.9878c0 0.12368-0.023419 0.23288-0.070257 0.32759-0.046838 0.094711-0.10985 0.17271-0.18903 0.23399-0.093676 0.07354-0.19683 0.12591-0.30947 0.15711-0.11152 0.031199-0.25371 0.046798-0.42656 0.046798h-0.88323v-2.3144a0.17431 0.17431 135 0 1 0.17431-0.17431h0.56339c0.18178 0 0.31783 0.006686 0.40816 0.020056 0.090331 0.013371 0.17676 0.041227 0.25928 0.083569 0.091446 0.047913 0.1578 0.10975 0.19906 0.18552 0.041262 0.074655 0.061893 0.16435 0.061893 0.26909 0 0.11811-0.03011 0.21895-0.090331 0.30252-0.06022 0.082454-0.14051 0.14875-0.24088 0.19889v0.013371c0.16839 0.034541 0.3011 0.10864 0.39812 0.22229 0.097022 0.11254 0.14553 0.25516 0.14553 0.42787zm-0.55704-1.1215c0-0.060169-0.010037-0.11087-0.03011-0.15209-0.020074-0.041227-0.052414-0.074655-0.097022-0.10028-0.052414-0.030085-0.11598-0.04847-0.1907-0.055155-0.074718-0.0078-0.16728-0.0117-0.27768-0.0117h-0.39478v0.71869h0.42823c0.10371 0 0.18624-0.00501 0.24757-0.015043 0.061336-0.011143 0.11821-0.033428 0.17062-0.066855 0.052415-0.033427 0.089216-0.076326 0.1104-0.1287 0.022304-0.053484 0.033456-0.11644 0.033456-0.18886zm0.21244 1.1349c0-0.10028-0.015055-0.17995-0.045166-0.23901-0.03011-0.059055-0.084754-0.1092-0.16393-0.15042-0.053529-0.027856-0.11877-0.045684-0.19572-0.053484-0.075833-0.0089139-0.16839-0.013371-0.27768-0.013371h-0.52024v0.92594h0.43827c0.14497 0 0.26374-0.00724 0.3563-0.021727 0.092561-0.015599 0.16839-0.043455 0.2275-0.083568 0.062451-0.043455 0.10817-0.093039 0.13717-0.14875 0.028995-0.055712 0.043493-0.12758 0.043492-0.21561z" fill="#0f0" stroke-width=".4325" style="paint-order:stroke fill markers" aria-label="B"/><path d="m1.7161 2.2466 0.12815 0.49714h-1.4309a0.1488 0.16068 0 0 0-0.1488 0.16068v0.33057a0.1488 0.16068 0 0 0 0.1488 0.16068h1.4309l-0.12815 0.49714a0.055476 0.059906 0 0 0 0.084105 0.065989l1.1175-0.80029a0.098681 0.10656 0 0 0 0-0.17761l-1.1175-0.80029a0.055476 0.059906 0 0 0-0.084105 0.065989z" stroke-width=".046542"/></svg>
